<?xml version="1.0" encoding="UTF-8" standalone="no"?>
<svg xmlns="http://www.w3.org/2000/svg" xmlns:xlink="http://www.w3.org/1999/xlink" viewBox="0 0 730 340">
  <defs>
    <style>.cls-1{fill:url(#Naamloos_verloop_2);}.cls-2{fill:#fac15c;}.cls-3{fill:#fa6800;}.cls-4{fill:#6b360b;}.cls-5{fill:#00526e;}.cls-6{fill:#003e53;}.cls-7{fill:#008c82;}.cls-8{fill:#e94e1b;}.cls-9{fill:#e6332a;}.cls-10{fill:#ffa933;}.cls-11{fill:#ff9300;}.cls-12{fill:#00a19a;}.cls-13{fill:#85b0bd;}.cls-14{fill:#9dbfca;}.cls-15{fill:#b78e6d;}.cls-16{fill:#bc3f38;}.cls-17{fill:#d84119;}.cls-18{fill:#d85700;}.cls-19{fill:#161515;}.cls-20{fill:#231f20;}.cls-21{fill:#87b2bf;}.cls-22{fill:#562805;}.cls-23{fill:#283241;}.cls-24{fill:#377f95;}.cls-25{fill:#377f93;}.cls-26{fill:#fff;opacity:.7;}</style>
    <linearGradient gradientTransform="translate(0 2182) scale(1 -1)" gradientUnits="userSpaceOnUse" id="Naamloos_verloop_2" x1="-122.739" x2="505.867" y1="2024" y2="2024">
      <stop offset="0" stop-color="#fff"/>
      <stop offset=".226" stop-color="#fff" stop-opacity=".99"/>
      <stop offset=".363" stop-color="#fcfcfc" stop-opacity=".957"/>
      <stop offset=".475" stop-color="#fbfcfc" stop-opacity=".901"/>
      <stop offset=".574" stop-color="#f9fafb" stop-opacity=".821"/>
      <stop offset=".665" stop-color="#f7f9f9" stop-opacity=".718"/>
      <stop offset=".75" stop-color="#f5f7f8" stop-opacity=".591"/>
      <stop offset=".83" stop-color="#f2f5f6" stop-opacity=".44"/>
      <stop offset=".906" stop-color="#eef3f3" stop-opacity=".265"/>
      <stop offset=".976" stop-color="#eaf0f1" stop-opacity=".072"/>
      <stop offset="1" stop-color="#e9eff0" stop-opacity="0"/>
    </linearGradient>
  </defs>
  <g id="Neuzen">
    <path class="cls-1" d="M443.97,0L66.601,166.632c-77.169,34.075-52.848,149.368,31.51,149.368H660V0h-216.03Z"/>
  </g>
  <g id="Onderwerp">
    <path class="cls-21" d="M662.251,196.087l1.379-173.895-55.622,.566-.056,27.99-2.257,.023,.213-34.697-131.426-1.284,.216,35.458h-3.488l-.341-27.987h-55.625l3.149,173.872,54.575-1.749-.252-20.641h2.861l.18,25.307h-5.822v9.444l141.337-.933,.466-8.511h-7.39l.275-.003,.179-24.765,2.899-.03-.042,20.642,54.591,1.194Zm-3.785-147.705l-45.129-.349,.011-4.45,45.13,.106-.011,4.693Zm.02-8.717l-45.13-.106,.009-3.99,45.13,.106-.009,3.99Zm.03-12.706l-.011,4.693-45.13-.106-.042-4.083,45.182-.505Zm-45.19,25.726l45.13,.106-.008,3.219-45.13-.106,.008-3.219Zm-.02,8.365l45.13,.106-.008,3.219-45.13-.106,.008-3.219Zm-.019,8.066l45.13,.106-.009,3.817-45.129-.53,.008-3.393Zm-.019,8.279l45.13,.106-.009,3.99-45.13-.106,.009-3.99Zm-.019,8.013l45.13,.106-.011,4.693-45.13-.106,.011-4.693Zm-.02,8.365l45.129,.453-.01,4.347-45.13-.106,.011-4.693Zm-.02,8.666l45.13,.106-.009,3.99-45.13-.003,.009-4.092Zm-.018,7.87l45.129,.494-.011,4.693-45.13-.106,.012-5.082Zm-.022,9.296l45.13,.106-.008,3.219-45.13-.106,.008-3.219Zm-.02,8.365l45.13,.106-.008,3.219-45.13-.106,.008-3.219Zm-.019,8.066l45.13,.106-.009,3.817-45.13-.106,.009-3.817Zm-.019,8.279l45.13,.106-.008,3.424-45.131,.459,.009-3.99Zm-.02,8.49l45.13,.106-.007,3.005-45.131,.63,.009-3.741Zm-.02,8.626l45.13,.106-.008,3.219-45.13-.106,.008-3.219Zm-.019,8.066l45.13,.106-.009,3.817-45.13-.106,.009-3.817Zm-.02,8.279l45.13,.106-.009,3.99-45.13-.106,.009-3.99Zm-.02,8.673l45.13,.106-.124,4.37-45.014-1.102,.008-3.374Zm-12.586-165.008V55.844h-120.579l-.232-35.688,120.811,1.284Zm-180.021,5.534l45.185,.045v4.083l-45.126,.565-.059-4.693Zm.109,8.716l45.126-.565,.05,3.989-45.126,.565-.05-3.989Zm.1,8.013l45.126-.565,.056,4.449-45.123,.809-.059-4.693Zm.114,9.101l45.126-.565,.04,3.219-45.126,.565-.04-3.219Zm.105,8.364l45.126-.565,.04,3.219-45.126,.565-.04-3.219Zm.101,8.065l45.126-.565,.042,3.393-45.121,.989-.048-3.817Zm.104,8.278l45.126-.565,.05,3.989-45.126,.565-.05-3.989Zm.1,8.013l45.126-.565,.059,4.693-45.126,.565-.059-4.693Zm.109,8.711l45.122-.912,.059,4.693-45.126,.565-.054-4.346Zm.104,8.318l45.126-.565,.051,4.092-45.127,.462-.05-3.989Zm.103,8.258l45.121-.954,.064,5.081-45.126,.565-.059-4.693Zm.112,8.907l45.126-.565,.04,3.219-45.126,.565-.04-3.219Zm.105,8.364l45.126-.565,.04,3.219-45.126,.565-.04-3.219Zm.101,8.065l45.126-.565,.048,3.817-45.126,.565-.048-3.817Zm.104,8.278l45.126-.565,.05,3.989h-45.133s-.043-3.424-.043-3.424Zm.106,8.489l45.126-.565,.047,3.74-45.135-.171-.038-3.004Zm.108,8.625l45.126-.565,.04,3.219-45.126,.565-.04-3.219Zm.101,8.065l45.126-.565,.048,3.817-45.126,.565-.048-3.817Zm.103,8.278l45.126-.565,.05,3.989-45.126,.565-.05-3.989Zm.277,13.041l-.168-4.368,45.126-.565,.042,3.374-45,1.56Zm49.973-31.178l-1.19-97.606h3.428l.695,97.606h-2.932Zm8.354,34.635l-1.02-134.34h120.547V193.098l-119.527,1.284Zm124.005-34.097l.705-97.619,2.318-.024-.197,97.613-2.826,.029Z"/>
    <g>
      <rect class="cls-23" height="38.091" width="1.287" x="200.38" y="99.549"/>
      <g>
        <polygon class="cls-13" points="197.549 143.817 219.915 212.453 208.359 143.817 197.549 143.817"/>
        <polygon class="cls-14" points="257.003 316 208.616 143.817 208.359 143.817 219.915 212.453 253.657 316 257.003 316"/>
      </g>
      <g>
        <polygon class="cls-14" points="189.088 159.272 145.045 316 148.391 316 183.269 208.965 193.689 161.061 189.088 159.272"/>
        <polygon class="cls-13" points="193.431 143.817 189.088 159.272 193.689 161.061 183.269 208.965 204.498 143.817 193.431 143.817"/>
      </g>
      <polygon class="cls-14" points="197.292 143.817 221.228 316 224.574 316 208.359 143.817 197.292 143.817"/>
      <rect class="cls-25" height="5.662" width="18.788" x="191.63" y="138.927"/>
      <rect class="cls-25" height="3.861" width="10.038" x="196.005" y="135.838"/>
      <g>
        <polygon class="cls-23" points="139.898 57.854 139.898 122.455 183.768 122.455 192.454 57.854 139.898 57.854"/>
        <polygon class="cls-5" points="262.15 57.854 192.454 57.854 183.768 122.455 262.15 122.455 262.15 57.854"/>
      </g>
    </g>
    <g>
      <path class="cls-6" d="M661.547,83.964c-4.039,8.492-8.003,17.019-11.873,25.588-1.938,4.283-3.84,8.582-5.703,12.897-1.864,4.314-3.68,8.65-5.357,13.033-3.314,8.78-5.939,17.815-8.361,26.886-2.391,9.082-4.464,18.248-6.194,27.471-1.728,9.222-3.072,18.523-3.719,27.858-.333,4.667-.491,9.372-.688,14.062-.17,4.695-.32,9.391-.448,14.088-.5,18.789-.776,37.594-.935,56.389l-2.668-.034c.382-18.814,.88-37.617,1.603-56.421,.183-4.701,.39-9.401,.615-14.102,.254-4.702,.466-9.396,.858-14.104,.765-9.421,2.228-18.75,4.072-27.988,1.846-9.239,4.033-18.404,6.538-27.48,2.535-9.065,5.272-18.086,8.704-26.866,1.735-4.379,3.605-8.697,5.521-12.993,1.915-4.296,3.869-8.574,5.858-12.835,3.972-8.525,8.037-17.005,12.176-25.449Z"/>
      <path class="cls-6" d="M545.523,101.395c4.952,7.773,9.791,15.618,14.545,23.515,4.747,7.901,9.398,15.862,13.87,23.928,1.133,2.008,2.221,4.041,3.313,6.073l1.634,3.049,1.585,3.077,1.579,3.08,1.512,3.116c.495,1.043,1.028,2.068,1.492,3.127l1.411,3.169,.705,1.585,.631,1.621,1.259,3.245c.748,2.183,1.518,4.359,2.234,6.552,1.472,4.374,2.839,8.783,4.181,13.199,5.231,17.694,9.733,35.683,11.756,54.149,.473,4.612,.686,9.299,.769,13.886l.352,13.824,.704,27.65-3.113,.038-.315-27.636-.157-13.819c-.02-4.628-.163-9.156-.564-13.721-.836-9.113-2.382-18.18-4.254-27.172-1.91-8.989-4.167-17.91-6.673-26.762-1.275-4.42-2.577-8.833-3.982-13.214-.683-2.197-1.42-4.376-2.135-6.563l-1.197-3.215-.6-1.608-.678-1.582-1.356-3.165c-.445-1.058-.962-2.086-1.44-3.131l-1.462-3.123-1.531-3.092-1.537-3.09-1.588-3.066c-1.062-2.042-2.118-4.088-3.222-6.109-4.352-8.117-8.888-16.138-13.522-24.102-4.641-7.96-9.368-15.871-14.211-23.713Z"/>
      <path class="cls-6" d="M596.548,82.738c2.474,19.87,4.901,39.745,7.246,59.632,1.171,9.943,2.326,19.889,3.414,29.844,.545,4.977,1.07,9.958,1.556,14.945,.478,4.989,.851,10.002,1.109,15.003,1.074,20.011,1.776,40.021,2.514,60.034l1.057,30.017c.359,9.999,.676,20.024,1.13,29.987l-3.11,.141c-.327-10.044-.514-20.036-.743-30.051l-.668-30.026c-.479-20.014-.921-40.034-1.735-60.025-.193-5-.499-9.977-.911-14.96-.421-4.983-.881-9.965-1.361-14.947-.959-9.963-1.984-19.921-3.026-29.877-2.087-19.913-4.256-39.818-6.473-59.718Z"/>
      <path class="cls-6" d="M653.17,202.929c-1.374-.355-2.808-.42-4.216-.33-1.411,.094-2.805,.381-4.143,.824-2.684,.883-5.108,2.43-7.186,4.318-2.08,1.897-3.832,4.131-5.321,6.517-1.495,2.386-2.733,4.927-3.795,7.535-1.067,2.608-1.945,5.292-2.713,8.005-.368,1.361-.738,2.722-1.038,4.102l-.463,2.065c-.157,.688-.274,1.384-.414,2.076-1.072,5.543-1.803,11.151-2.306,16.779-1.003,11.259-1.241,22.583-1.047,33.89,.095,5.654,.304,11.307,.61,16.953,.312,5.639,.704,11.301,1.248,16.888l-3.543,.319c-.402-5.718-.638-11.386-.799-17.081-.154-5.689-.21-11.38-.152-17.07,.112-11.378,.66-22.764,1.978-34.078,.661-5.655,1.551-11.29,2.784-16.856,.159-.695,.297-1.393,.474-2.084l.524-2.074c.341-1.384,.745-2.753,1.152-4.119,.843-2.725,1.797-5.419,2.943-8.035,1.141-2.616,2.459-5.163,4.035-7.549,1.571-2.385,3.406-4.614,5.568-6.491,2.159-1.868,4.661-3.379,7.398-4.206,1.364-.415,2.777-.67,4.199-.73,1.419-.057,2.856,.045,4.222,.433Z"/>
      <path class="cls-6" d="M611.021,184.123c.55,4.979,1.029,9.966,1.438,14.957,.401,4.992,.712,9.99,.959,14.99,.221,5.001,.373,10.005,.42,15.008l.003,15.038c.056,14.063,.202,28.121,.376,42.179h2.402c-.382-14.066-.736-28.133-1-42.197l-.226-15.045c-.121-5.023-.348-10.042-.644-15.055-.321-5.012-.707-10.018-1.183-15.016-.484-4.997-1.038-9.985-1.662-14.965-1.272-9.956-2.813-19.875-4.637-29.74-1.839-9.861-3.888-19.687-6.387-29.399,2.356,9.748,4.258,19.598,5.95,29.477,1.677,9.883,3.07,19.811,4.192,29.768Z"/>
      <path class="cls-23" d="M626.591,149.631s-9.07-17.036-8.789-31.59c.426-22.034,14.002-28.424,18.14-36.011,0,0,1.112,5.8-1.579,14.702-2.691,8.902-3.458,18.577,.082,26.133,10.606,22.634-7.855,26.766-7.855,26.766Z"/>
      <path class="cls-6" d="M565.888,94.774c.445,.326,15.96,18.592,20.971,33.064,4.518,13.05,1.43,24.923-.92,33.795s-12.849,16.217-15.995,18.906c-3.146,2.689-5.832,3.837-7.617,2.293s4.696-14.248,7.529-24.254c2.783-9.829,5.726-18.87,1.661-37.009-4.066-18.139-7.283-24.724-7.519-26.003-.235-1.279,.189-2.041,1.89-.794Z"/>
      <path class="cls-5" d="M565.553,157.647c-.592-.687-7.866-8.61-12.241-21.041-4.375-12.431-8.882-25.001-10.854-31.684-1.971-6.683-2.759-7.517-3.554-8.08-.795-.564,2.903-2.215,9.785,2.986,6.882,5.201,24.753,13.27,33.343,29.609,8.59,16.339,13.395,30.36,14.491,37.486,3.25,21.131-15.578,5.637-15.578,5.637,0,0-12.645-11.722-15.393-14.912Z"/>
      <path class="cls-5" d="M629.85,133.126c-6.215-19.805-14.242-33.349-21.841-42.302-6.64-7.824-12.553-10.486-12.553-10.486,0,0-2.391,5.198-12.395,22.577-2.484,4.314-4.343,9.641-5.45,15.486,0,0,12.006,13.574,11.776,22.54l-.497,33.832c11.008,10.815,42.514,1.655,44.638-3.945,2.124-5.601,1.531-21.104-3.678-37.704Z"/>
      <path class="cls-24" d="M642.887,91.121c10.968-5.681,22.72-12.834,22.72-12.834,0,0,3.475,23.544-2.421,38.286-5.897,14.742-5.557,16.693-14.922,30.221-9.366,13.528-15.956,22.026-16.476,21.853-.52-.173,2.258-9.135,2.431-10.002,.114-.569-8.489-16.114-18.967-29.025,1.035-6.725,11.897-30.347,27.636-38.499Z"/>
      <path class="cls-6" d="M656.79,172.469c-20.502,9.856-21.356,15.635-26.688,23.882-5.332,8.246-7.738,22.879-7.543,27.265,.196,4.386,1.275,6.853,3.835,7.119,2.561,.266,7.88-13.51,13.757-22.952,5.773-9.275,10.797-18.103,28.299-28.083,17.502-9.981,25.153-12.254,26.349-12.998,1.196-.744-17.508-4.088-38.01,5.767Z"/>
      <path class="cls-5" d="M625.027,174.155s.87-16.825,20.664-33.41c19.794-16.585,51.563-16.802,51.563-16.802,0,0-39.397,25.299-48.667,40.169-9.27,14.87-16.222,34.762-17.574,41.135-1.352,6.373-12.553,2.897-12.553,2.897,0,0,2.704-23.368,6.566-33.989Z"/>
      <path class="cls-6" d="M580.38,212.032s-9.346-12.807-23.163-6.151c-12.988,6.257-14.044,22.255-13.684,28.883,.531,9.752,3.048,11.379,3.048,11.379,0,0,2.472-5.689,4.183-10.251,2.759-7.357,9.517-31.684,29.616-23.859Z"/>
      <path class="cls-5" d="M580.962,200.349s-6.382-16.36-21.708-28.31c-10.057-7.842-26.388-9.76-35.678-9.177-9.289,.584-12.03,1.644-11.389-.762,.641-2.406,4.734-9.133,15.955-12.37s42.095-5.355,61.47,28.049c5.666,9.769,9.455,22.958,9.455,22.958l-18.105-.388Z"/>
      <path class="cls-6" d="M641.722,209.561s8.661,6.363,12.196,17.145c3.535,10.782-4.419,27.928-4.242,32.7,.177,4.772-3.005-1.237-2.828-8.484,.177-7.247,1.6-15.926-5.479-19.62-17.275-9.012,.354-21.741,.354-21.741Z"/>
      <path class="cls-6" d="M679.232,169.881c-.916,.135-1.786,.474-2.652,.786-.867,.32-1.716,.684-2.559,1.061-1.684,.76-3.325,1.611-4.934,2.516-3.204,1.835-6.278,3.895-9.165,6.192-5.782,4.58-10.909,9.965-15.216,15.931-2.148,2.987-4.097,6.112-5.867,9.333-1.743,3.238-3.278,6.58-4.654,9.985-.332,.856-.641,1.722-.962,2.581l-.478,1.291c-.15,.434-.284,.873-.428,1.309l-.847,2.62c-.26,.88-.496,1.768-.745,2.651-.525,1.757-.898,3.567-1.326,5.358-.411,1.796-.85,3.584-1.239,5.384l-1.036,5.429-.518,2.713c-.154,.908-.285,1.82-.428,2.73l-.842,5.462c-.264,1.823-.457,3.657-.689,5.484-.492,3.651-.779,7.328-1.132,10.995-.177,1.833-.263,3.676-.4,5.513-.123,1.838-.264,3.675-.329,5.517l-.248,5.521-.137,5.525c-.06,1.841-.05,3.684-.064,5.526l-.015,2.763,.029,2.762c.022,1.842,.034,3.683,.097,5.523,.048,1.84,.096,3.681,.183,5.519,.144,3.67,.357,7.367,.664,10.984l-3.563,.3c-.243-3.76-.38-7.454-.452-11.178-.051-1.858-.061-3.716-.072-5.574-.026-1.858,0-3.715,.015-5.572l.027-2.785,.071-2.785c.051-1.856,.079-3.713,.177-5.567l.25-5.564,.361-5.558c.102-1.853,.282-3.702,.443-5.552,.174-1.848,.299-3.701,.515-5.545,.43-3.689,.794-7.383,1.363-11.055,.271-1.837,.503-3.679,.806-5.51l.96-5.487c.163-.914,.313-1.83,.486-2.741l.577-2.725,1.155-5.449c.428-1.807,.907-3.602,1.359-5.403,.469-1.798,.878-3.605,1.449-5.384,.271-.891,.528-1.786,.81-2.674l.913-2.641c.154-.439,.3-.882,.461-1.318l.511-1.301c.344-.866,.674-1.736,1.028-2.597,1.465-3.425,3.089-6.78,4.919-10.022,1.859-3.225,3.894-6.346,6.125-9.321,4.474-5.941,9.754-11.265,15.662-15.753,2.949-2.25,6.079-4.258,9.33-6.034,1.632-.876,3.294-1.696,4.997-2.423,.852-.361,1.711-.708,2.585-1.011,.874-.295,1.752-.617,2.671-.734Z"/>
      <path class="cls-6" d="M566.447,175.943c12.241,5.281,19.032,14.026,23.823,21.479,4.791,7.453,7.527,17.925,7.394,21.917-.133,3.993-.92,12.185-.92,12.185,0,0-11.725-9.196-15.258-23.605-2.349-9.577-9.716-16.37-25.287-25.287-15.571-8.917-23.424-11.579-23.424-11.579,0,0,20.096-.966,33.672,4.89Z"/>
      <path class="cls-6" d="M546.418,176.222c.809,.037,1.597,.256,2.379,.452,.783,.203,1.556,.445,2.324,.7,1.535,.514,3.041,1.112,4.524,1.761,2.957,1.319,5.825,2.849,8.553,4.602,5.462,3.496,10.437,7.765,14.752,12.627,2.153,2.436,4.145,5.012,5.991,7.692,1.822,2.696,3.473,5.505,4.99,8.387,.369,.725,.718,1.461,1.078,2.191l.536,1.097,.494,1.116,.98,2.237c.308,.753,.595,1.515,.894,2.273,.622,1.51,1.106,3.056,1.64,4.589,.52,1.537,1.063,3.068,1.563,4.612l1.388,4.667,.694,2.334c.215,.782,.41,1.57,.616,2.355l1.221,4.714c.393,1.575,.724,3.163,1.089,4.745,.754,3.159,1.33,6.353,1.963,9.537,.317,1.592,.556,3.197,.838,4.795,.27,1.6,.556,3.198,.776,4.806l.705,4.818,.608,4.831c.215,1.609,.37,3.225,.545,4.839l.257,2.421,.219,2.425c.144,1.617,.296,3.234,.404,4.854,.12,1.619,.242,3.239,.328,4.862,.199,3.25,.339,6.478,.391,9.771l-3.113-.011c.013-3.173-.061-6.409-.193-9.617-.053-1.608-.141-3.214-.228-4.822-.075-1.608-.194-3.213-.304-4.819l-.169-2.409-.207-2.406c-.142-1.604-.263-3.21-.444-4.81l-.507-4.805-.604-4.793c-.186-1.601-.438-3.191-.674-4.784-.248-1.591-.453-3.19-.735-4.775-.565-3.17-1.073-6.353-1.758-9.501-.331-1.576-.628-3.16-.986-4.73l-1.117-4.7c-.189-.783-.367-1.569-.565-2.349l-.642-2.328-1.284-4.658c-.465-1.541-.974-3.069-1.458-4.604-.499-1.53-.951-3.082-1.532-4.575-.279-.752-.547-1.509-.836-2.258l-.922-2.224-.465-1.111-.507-1.092c-.341-.727-.67-1.459-1.019-2.182-1.439-2.87-3.011-5.675-4.757-8.374-1.769-2.682-3.687-5.268-5.768-7.72-4.172-4.895-9.018-9.228-14.378-12.812-2.677-1.798-5.5-3.377-8.421-4.751-1.465-.676-2.955-1.302-4.476-1.846-.761-.269-1.527-.527-2.305-.745-.777-.211-1.559-.446-2.366-.499Z"/>
      <path class="cls-24" d="M589.729,198.126s-6.535-17.611-6.539-30.952c-.01-31.979,11.046-58.435,11.945-58.647,.333-.079,29.427,25.749,36.88,61.917,4.093,19.864,2.616,33.785-3.052,39.67s-12.424,9.155-18.963,7.847c-6.539-1.308-16.566-13.296-20.271-19.835Z"/>
      <path class="cls-6" d="M645.982,211.835s17.09-12.32,31.795,1.788c13.823,13.263,8.744,33.981,5.365,42.128-3.378,8.147-11.809,18.332-11.809,18.332,0,0-1.25-4.627-.909-13.96,.24-6.565,4.173-49.878-24.442-48.288Z"/>
      <path class="cls-24" d="M620.463,226.623s.821,2.784,3.454,3.912c2.633,1.129,7.013,.38,9.227-.746,7.286-3.704,8.731-16.398,19.513-20.485,5.162-1.957,13.286-2.198,15.563-1.564,1.468,.408-20.097-9.562-33.945-4.673-2.532,.894-8.795,4.033-12.525,11.003-2.606,4.87-2.299,9.704-1.287,12.552Z"/>
      <path class="cls-6" d="M607.811,199.557s6.371-1.124,10.024,1.593c3.654,2.717,9.181,12.085,3.443,19.86-5.272,7.143-23.96,6.653-31.08-4.777-2.592-4.161,17.613-16.676,17.613-16.676Z"/>
      <path class="cls-6" d="M567.486,248.041c-.605-3.605-.953-7.252-1.132-10.905-.171-3.654-.145-7.321,.154-10.973,.3-3.649,.876-7.29,1.899-10.823,1.026-3.523,2.518-6.962,4.753-9.931,2.214-2.968,5.253-5.377,8.744-6.71,1.738-.678,3.564-1.114,5.407-1.352,1.844-.245,3.733-.262,5.594,.015,1.864,.261,3.683,.878,5.345,1.781,1.661,.909,3.137,2.125,4.422,3.495,2.547,2.779,4.336,6.117,5.73,9.539,1.388,3.437,2.404,6.996,3.236,10.581,.825,3.589,1.463,7.212,1.991,10.846,1.049,7.27,1.686,14.58,2.169,21.889,.941,14.623,1.282,29.257,1.62,43.877l-2.668,.039c-.114-14.615-.231-29.227-.944-43.8-.37-7.284-.892-14.56-1.821-21.779-.468-3.608-1.044-7.199-1.802-10.748-.766-3.544-1.711-7.052-3.01-10.417-1.304-3.352-2.987-6.587-5.353-9.248-1.194-1.311-2.557-2.468-4.092-3.339-1.536-.864-3.222-1.468-4.976-1.741-1.751-.288-3.552-.303-5.334-.093-1.784,.202-3.544,.596-5.222,1.221-3.368,1.23-6.319,3.492-8.516,6.343-2.215,2.851-3.737,6.207-4.802,9.673-1.064,3.476-1.691,7.084-2.044,10.712-.353,3.63-.433,7.287-.317,10.937,.124,3.649,.417,7.298,.968,10.912Z"/>
      <path class="cls-5" d="M617.835,201.15s-17.426-5.221-30.29,25.38c-9.881,23.504-18.742,38.694-18.742,38.694,0,0-9.974-18.967-11.847-26.333-1.873-7.366-4.44-15.796-.445-26.908,3.995-11.112,8.736-13.794,14.802-15.916,7.487-2.619,26.35-6.844,46.521,5.084Z"/>
      <path class="cls-23" d="M586.402,280.623c-.737,0-1.341,.59-1.351,1.326-.011,.812-.017,1.628-.017,2.446,0,21.765,3.942,41.314,10.2,54.738,.221,.475,.701,.772,1.225,.772h35.097c.524,0,1.003-.297,1.225-.772,6.258-13.424,10.2-32.972,10.2-54.738,0-.819-.006-1.634-.017-2.446-.01-.737-.614-1.326-1.351-1.326h-55.212Z"/>
    </g>
    <g>
      <path class="cls-4" d="M385.074,100.414c-2.033-5.27-3.051-12.047-3.051-12.047l-18.253,.272s-.002,6.769-1.526,12.411l-8.826,2.028,11.442,13.349,10.08,2.724,8.718-1.907,10.625-15.257-9.209-1.575Z"/>
      <path class="cls-22" d="M362.243,101.051l-8.826,2.028,11.442,13.349,10.08,2.724s-9.535-5.449-14.439-14.712l1.743-3.39Z"/>
      <g>
        <g>
          <polygon class="cls-12" points="441.639 165.262 443.06 164.997 440.126 147.588 438.088 147.968 441.639 165.262"/>
          <path class="cls-20" d="M438.781,145.347l-1.223-6.547c-.028-.152-.095-.286-.184-.401,.243,.124,.429,.348,.482,.63l1.172,6.271-.247,.046Z"/>
          <path class="cls-12" d="M436.003,139.375l1.172,6.271-.247,.046-1.223-6.546c-.096-.512,.242-1.004,.754-1.099,.359-.067,.706,.082,.915,.352-.18-.091-.393-.13-.611-.09-.512,.096-.852,.573-.76,1.066Z"/>
          <path class="cls-23" d="M437.949,148.251l-1.979-10.592c-.105-.562,.349-1.12,1.014-1.244,.665-.124,1.29,.231,1.395,.794l1.979,10.592-2.409,.45Z"/>
          <polygon class="cls-23" points="442.487 166.446 443.819 166.506 445.127 136.367 443.795 136.307 442.487 166.446"/>
          <polygon class="cls-2" points="443.769 136.355 445.149 136.418 444.626 133.931 444.514 133.925 443.769 136.355"/>
          <polygon class="cls-5" points="444.245 134.803 444.514 133.925 444.626 133.931 444.815 134.829 444.245 134.803"/>
          <polygon class="cls-16" points="443.567 167.328 444.892 167.476 447.834 139.393 446.51 139.245 443.567 167.328"/>
          <polygon class="cls-2" points="446.48 139.291 447.853 139.445 447.496 136.929 447.385 136.916 446.48 139.291"/>
          <polygon class="cls-9" points="447.058 137.774 447.385 136.916 447.496 136.929 447.625 137.838 447.058 137.774"/>
          <polygon class="cls-8" points="450.666 148.667 450.109 168.059 436.675 168.131 436.14 148.667 450.666 148.667"/>
          <polygon class="cls-17" points="440.053 165.473 450.157 166.389 450.109 168.059 436.675 168.131 436.14 148.667 438.802 148.667 440.053 165.473"/>
        </g>
        <path class="cls-3" d="M408.77,108.33c-2.217-1.632-12.483-7.468-15.181-8.14-5.941,10.23-18.328,16.875-18.328,16.875,0,0-17.275-7.178-20.819-15.733-9.405,2.326-16.746,4.996-16.746,4.996,0,0-12.346,18.019-17.214,31.641l6.771,3.889,17.467,10.033c-1.607,10.855-4.465,28.071-3.353,34.188l60.397,5.339-.797-38.636,22.153-17.089s-7.341-16.017-14.349-27.362Z"/>
        <path class="cls-18" d="M338.362,140.03l3.337-18.686-7.341,17.018-13.877-.393,24.238,13.922,.095,3.823s-4.449,21.022-3.448,30.366h62.399v-54.391l19.354,4.004-6.006-12.013-15.683,.334-3.671-5.673-.334,5.005-33.702,1.335-6.34,24.693s-13.347,0-19.02-9.343Z"/>
        <rect class="cls-15" height="6.564" width="14.435" x="365.9" y="221.864"/>
        <g>
          <path class="cls-20" d="M341.005,306.995v-4.121h-2.136v3.85c-2.356,.241-4.202,2.208-4.202,4.628,0,2.582,2.093,4.676,4.676,4.676s4.676-2.093,4.676-4.676c0-1.995-1.255-3.686-3.014-4.357Z"/>
          <path class="cls-20" d="M409.915,306.995v-4.121h-2.136v3.85c-2.356,.241-4.202,2.208-4.202,4.628,0,2.582,2.093,4.676,4.676,4.676s4.676-2.093,4.676-4.676c0-1.995-1.255-3.686-3.014-4.357Z"/>
        </g>
        <path class="cls-20" d="M407.154,299.551l-27.478-3.259v-.547c0-.584-.473-1.058-1.057-1.058h-.71v-49.881h-1.52v-22.943h-6.545v22.943h-1.52v49.881h-.71c-.584,0-1.057,.474-1.057,1.058v.487l-25.669,3.319c-1.977,1.352-3.892,1.475-3.892,5.365v.073l29.56-.063v.606c0,.584,.474,1.057,1.057,1.057h11.004c.584,0,1.057-.474,1.057-1.057v-.606l31.72,.063v-.073c0-3.89-2.087-4.014-4.243-5.365Z"/>
        <path class="cls-11" d="M405.38,224.369h-63.165c-2.805,0-5.099-3.03-5.099-6.734v-1.934c0-3.704,2.295-6.734,5.099-6.734h63.165c2.805,0,5.099,3.03,5.099,6.734v1.934c0,3.703-2.295,6.733-5.099,6.733Z"/>
        <path class="cls-4" d="M447.095,288.772l-2.45-2.74c-1.712-2.632-5.747-8.982-6.118-9.713-1.768-5.56-8.066-31.846-8.066-31.846l-13.623-26.564-15.544,7.01s9.306,24.79,10.48,26.896c6.077,10.898,16.177,24.704,18.626,30.609,.668,2.08,1.105,3.589,1.413,5.023,.499,2.322,.097,.274,2.066,4.35,.955,1.977,8.203,5.718,11.907,4.132,3.29-1.409,.452,1.589,1.685,1.196,1.726-.549,6.115-3.919-.377-8.352Z"/>
        <g>
          <path class="cls-20" d="M376.03,312.627c-.236-.762-.377-1.552-.444-2.347-.308-3.657-.363-7.223-.267-8.562,.038-.524-.036-1-.158-1.45-.272,1.625-.482,2.831-.584,3.407h.008s-9.709-.444-9.705-.57c.016-.535-.013-1.75-.069-3.446-.341,.551-.727,1.149-.828,1.896-1.387,10.198-3.752,15.903-3.914,18.84-.107,.965,.779,2.113,1.88,3.143,1.873,1.753,4.213,2.927,6.71,3.512,0,0,3.778-.59,6.895-2.928,1.221-.916,2.269-2.728,2.104-3.836-.043-.288-.903-5.324-1.627-7.66Z"/>
          <path class="cls-4" d="M363.855,272.322s.67,18.671,.957,27.337c.056,1.696,.086,2.911,.069,3.446-.004,.126,0,.248,.009,.367-1.251,3.86-1.928,5.492-2.048,8.931-.043,1.228,.663,2.21,1.588,2.965,2.177,1.777,5.276,1.979,7.79,.722,1.507-.753,2.9-1.883,2.923-3.489,.051-3.517-.556-8.925-.556-8.925h-.008c.102-.577,.312-1.783,.584-3.408,1.344-8.043,5.245-26.318,5.245-26.318l-8.342-5.895-8.21,4.268Z"/>
        </g>
        <path class="cls-23" d="M456.279,291.47c-3.806-2.067-10.445-4.811-11.635-5.438,0,0,1.643,2.783,.652,3.915-1.523,1.74-4,3.198-6.198,2.175-.821-.382-1.535-.807-2.177-1.257-2.02-1.413-3.292-3.068-4.593-4.398-.642-.657-1.015-1.323-1.24-1.874-.377-.92-.344-1.521-.472-1.225,.041,1.941-.879,6.44-.49,7.34,.502,1.158,1.936,2.422,3.407,3.408,.38,.998,.621,1.945,.571,2.679,.665,.891,2.548-.296,2.548-.296l.037-.775c.038,.01,.09,.033,.126,.041,1.638,.371,4.567,5.274,7.177,4.513,2.53-.738,5.013-1.633,6.28-2.393,1.631-.978,8.787-4.908,6.008-6.415Z"/>
        <path class="cls-24" d="M430.46,244.474s-7.564-31.811-16.907-53.835c-3.168-7.466-10.456-20.466-10.456-20.466l-50.777,8.965-7.507,1.046c-6.896,5.117-7.284,19.594-3.559,24.915,4.672,6.674,12.316,7.076,12.316,7.076h12.154s2.581-19.988,14.978-17.052c1.736,.411,3.493,1.412,5.141,2.686,4.987,10.579,14.369,34.942,25.929,54.006l18.686-7.341Z"/>
        <path class="cls-20" d="M376.571,139.664c0,.961-.73,1.74-1.631,1.74s-1.631-.779-1.631-1.74,.73-1.74,1.631-1.74,1.631,.779,1.631,1.74Z"/>
        <polygon class="cls-11" points="497.157 328.916 502.217 328.916 476.495 174.173 462.72 174.173 497.157 328.916"/>
        <polygon class="cls-11" points="256.026 328.916 250.967 328.916 276.689 174.173 290.463 174.173 256.026 328.916"/>
        <path class="cls-5" d="M385.844,197.809c4.987,10.579,14.369,34.942,25.929,54.006l18.686-7.341-17.574,1.78-15.127-40.487,15.795-15.127s-5.561-13.347-10.456-20.466l-58.284,10.011s-7.786,4.449-6.006,19.131c1.78,14.682,14.763,12.86,14.763,12.86h12.154l20.119-14.366Z"/>
        <path class="cls-24" d="M363.722,201.094c-1.128,7.241-.736,39.091,.132,71.228l16.552,1.627c1.949-8.383,9.73-50.954,12.013-68.406,2.283-17.451-26.028-21.578-28.697-4.449Z"/>
        <path class="cls-4" d="M327.252,141.857s-2.015,10.623-1.57,25.587h50.888l.08-6.909s-13.509-4.538-31.837-4.822l-.095-3.823-17.467-10.033Z"/>
        <path class="cls-22" d="M344.814,155.713s-4.227-.445-10.233,1.335l7.786-4.004-15.115-11.186,17.467,10.033,.095,3.823Z"/>
        <path class="cls-23" d="M345.599,168.183h75.296v-3.827h-78.151v.972c0,1.577,1.278,2.855,2.855,2.855Z"/>
        <rect class="cls-10" height="10.786" width="239.16" x="255.622" y="167.444"/>
        <path class="cls-23" d="M360.158,166.391h52.275c.43,0,.779-.349,.779-.779l6.765-37.464c0-.43-.349-.779-.779-.779h-52.275c-.43,0-.779,.349-.779,.779l-6.766,37.464c0,.43,.349,.779,.779,.779Z"/>
        <path class="cls-6" d="M361.833,166.391h59.951c.506,0,.916-.417,.916-.931l6.655-37.16c0-.515-.41-.931-.916-.931h-59.951c-.506,0-.916,.417-.916,.931l-6.655,37.16c0,.514,.41,.931,.916,.931Z"/>
        <g>
          <polygon class="cls-21" points="272.515 156.825 320.51 162.804 320.568 166.547 272.303 166.601 272.515 156.825"/>
          <polygon class="cls-24" points="272.303 166.601 273.043 156.631 320.51 162.804 320.51 164.305 276.38 158.967 275.629 166.725 272.303 166.601"/>
          <polygon class="cls-6" points="324.258 162.884 272.104 155.824 271.643 167.511 324.215 167.426 324.263 166.203 272.976 166.083 273.428 157.395 324.073 163.965 324.258 162.884"/>
          <polygon class="cls-21" points="275.423 145.544 322.129 158.108 321.668 161.824 273.86 155.196 275.423 145.544"/>
          <polygon class="cls-24" points="273.86 155.196 275.973 145.424 322.129 158.108 321.921 159.596 280.885 149.29 280.05 156.38 273.86 155.196"/>
          <polygon class="cls-6" points="325.83 158.706 275.155 144.496 273.081 156.006 325.158 163.198 325.376 161.995 274.598 154.777 276.248 146.234 325.496 159.751 325.83 158.706"/>
          <polygon class="cls-21" points="322.059 146.551 274.219 139.44 273.159 143.03 319.642 156.025 322.059 146.551"/>
          <polygon class="cls-24" points="321.428 147.705 321.602 146.222 274.219 139.44 273.159 143.03 284.805 146.704 284.889 143.367 321.428 147.705"/>
          <polygon class="cls-6" points="270.586 138.511 322.723 145.697 320.033 157.079 269.41 142.898 269.691 141.708 319.132 155.346 321.027 146.855 270.475 139.602 270.586 138.511"/>
        </g>
        <g>
          <g>
            <path class="cls-12" d="M309.893,92.442c-4.963-1.101-5.759,4.756-8.627,13.313-1.553,4.633-4.287,5.106-6.47,4.569,1.885-6.352,4.118-13.978,5.419-18.771,2.563-9.451-2.343-10.97-2.343-10.97,0,0-7.607-3.591-11.177,7.001-3.57,10.592-8.068,34.266-8.068,34.266l12.834-.385s.524-1.731,1.329-4.417c14.285,2.111,16.672-8.9,16.672-8.9,0,0,5.394-14.605,.431-15.705Z"/>
            <path class="cls-7" d="M294.796,110.323l-2.006,6.724c.937,.139,1.818,.22,2.646,.251l1.793-6.919c-.829,.198-1.665,.134-2.433-.055Z"/>
            <path class="cls-7" d="M296.162,83.758s-4.326,22.419-10.289,41.207l.78,.532s7.084-20.766,9.51-41.739Z"/>
            <path class="cls-7" d="M295.754,111.822s4.963,1.101,7.071-5.003c2.108-6.104,3.018-12.797,7.068-14.377,0,0-3.802,2.892-5.471,12.038-1.291,7.072-6.328,8.939-8.363,8.236l-.305-.894Z"/>
            <path class="cls-7" d="M282.335,122.78s3.624-20.384,7.669-31.338c0,0-4.18,8.805-8.981,31.585l1.312-.248Z"/>
            <path class="cls-5" d="M271.609,117.061l6.194,.926,25.124,3.758s-1.536,11.295-12.104,20.083l-13.386-1.82s-5.556-9.277-5.827-22.947Z"/>
          </g>
          <path class="cls-6" d="M271.609,117.061s-.82,11.876,5.827,22.947l5.524,.751s-5.4-8.583-5.158-22.772l-6.194-.926Z"/>
        </g>
      </g>
      <path class="cls-22" d="M383.739,96.308c-1.144-4.129-1.716-7.941-1.716-7.941l-18.253,.272s0,3.318-.524,7.244c0,0,3.612,3.291,10.151,3.472s10.344-3.047,10.344-3.047Z"/>
      <g>
        <path class="cls-19" d="M383.402,90.949s12.921-2.098,12.313-15.554c-.304-7.061-2.445-9.014-5.788-15.569-3.342-6.554-6.67-13.022-17.58-11.156,0,0-7.234-2.619-13.644,5.976-6.41,8.595-8.942,21.443-5.354,28.316,3.588,6.873,3.14,6.41,6.439,7.509,1.678,.656,3.494,.879,5.281,.651l18.332-.174Z"/>
        <path class="cls-4" d="M388.871,74.151s.275-14.831-14.787-15.742c-15.062-.912-14.31,14.946-14.31,14.946-1.693-.13-3.646,.203-3.559,5.296-.154,2.751,1.448,5.298,3.993,6.352,.641,3.184,2.142,6.132,4.341,8.522,5.528,5.292,14.491,4.925,18.795-.043,2.175-2.778,3.591-6.074,4.109-9.564,0,0,2.894,.275,3.719-4.341,.825-4.616-.42-5.296-2.301-5.426Z"/>
        <path class="cls-22" d="M360.839,73.759s-.22-2.131,3.159-3.012c4.702-1.029,6.759,1.469,6.759,1.469l1.91,.441,2.865,.073,1.177,.04,2.203-1.582,4.922-.073,3.452,2.012,1.546,.052c-.248-3.313-2.033-14.001-14.748-14.77-15.062-.912-14.31,14.946-14.31,14.946-1.693-.13-3.646,.203-3.559,5.296-.154,2.751,1.448,5.298,3.993,6.352,.605,3.005,1.984,5.793,3.984,8.107-.545-3.181-.903-7.469-.589-12.952-3.278-3.239-2.909-5.037-2.764-6.398Z"/>
        <path class="cls-22" d="M376.789,83.527c-1.908,.434-3.893,.404-5.788-.087l1.042-9.419c-.094,3.635-3.117,6.505-6.751,6.411-.161-.004-.323-.014-.483-.03,1.362,.603,2.864,.818,4.341,.622l-.579,2.677s4.934,1.953,8.218-.174Z"/>
        <path class="cls-26" d="M376.428,73.384s.839-3.183,6.106-2.373c5.267,.81,4.673,3.719,4.673,3.719,0,0-.362,6.149-4.919,6.106-4.558-.043-6.96-3.661-5.86-7.452Z"/>
        <path class="cls-19" d="M390.281,73.006c-7.611-.781-13.983-6.973-13.983-6.973l2.286,3.444c-6.048-1.664-12.848-7.64-12.848-7.64,0,0-2.474,7.336-7.524,9.55,0,0,.984-15.684,15.323-14.368,15.369,1.055,16.747,15.987,16.747,15.987Z"/>
        <path d="M365.735,61.838c-1.334-1.255-2.532-2.647-3.574-4.153l1.36,4.428s-1.085,6.106-8.58,11.083c0,0,7.567-1.809,10.794-11.358Z"/>
        <path class="cls-26" d="M371.624,73.775s-.347-3.284-5.672-3.284-5.18,2.966-5.18,2.966c0,0-.593,6.135,3.907,6.786,4.5,.651,7.452-2.547,6.945-6.468Z"/>
        <path d="M389.681,72.733c-2.474-.13-4.746-2.084-8.378-2.112-1.513-.079-3.006,.383-4.21,1.302-.396,.349-.951,.454-1.447,.275-1.035-.525-2.252-.557-3.313-.087-.509,.16-1.066,.027-1.447-.347-1.152-.988-2.62-1.532-4.138-1.534-3.632-.159-6.005,1.678-8.479,1.664v1.548s1.91-.333,2.141,1.288,1.056,6.164,5.599,5.788c3.374-.016,6.105-2.747,6.12-6.12,0,0,0-1.447,1.881-1.447s1.809,1.447,1.809,1.447c-.164,3.371,2.418,6.244,5.788,6.439,4.529,.608,5.571-3.878,5.889-5.484s2.214-1.172,2.214-1.172l-.029-1.447Zm-18.578,2.72c-.178,2.475-2.207,4.41-4.688,4.471-4.022,.26-4.804-2.141-5.281-4.616-.463-1.787,.611-3.611,2.398-4.073,.135-.035,.271-.061,.409-.079,1.05-.227,2.126-.305,3.198-.232,1.088,.025,2.138,.4,2.995,1.071,.893,.905,1.259,2.205,.969,3.444v.014Zm15.467,.521c-.579,2.373-1.447,4.659-5.122,4.341h-.391c-2.474-.207-4.391-2.249-4.442-4.731-.218-1.252,.218-2.529,1.158-3.386,1.205-.774,2.648-1.088,4.066-.883,.729,.056,1.451,.182,2.156,.376,1.808,.329,3.007,2.062,2.678,3.87-.025,.14-.06,.278-.103,.413h0Z"/>
      </g>
    </g>
  </g>
</svg>
